
<svg xmlns="http://www.w3.org/2000/svg" version="1.1" xmlns:xlink="http://www.w3.org/1999/xlink" viewBox="0 0 200 200">
  <defs>
    <linearGradient id="gradient" gradientTransform="rotate(45 0.5 0.5)">
      <stop offset="0%" stop-color="#ceaa96"></stop>
      <stop offset="100%" stop-color="#8fa983"></stop>
    </linearGradient>
    <clipPath id="circleClip">
      <circle cx="100" cy="100" r="100" />
    </clipPath>
  </defs>
  <rect width="200" height="200" fill="url('#gradient')" clip-path="url(#circleClip)"></rect>
  <g clip-path="url(#circleClip)">
    <g fill="#445272" transform="matrix(8.080666374397195,0,0,8.080666374397195,6.831594061036213,153.09224154394167)" stroke="#c8512e" stroke-width="0.2">
      <path d="M6.10 1.79L5.49 3.52Q1.97 2.53 1.97-1.03L1.97-1.03L1.97-2.96Q1.97-4.93 0.39-4.93L0.39-4.93L0.39-7.15Q1.97-7.15 1.97-9.13L1.97-9.13L1.97-11.18Q2.00-12.94 2.89-14.02Q3.77-15.11 5.49-15.60L5.49-15.60L6.10-13.88Q4.87-13.41 4.82-11.25L4.82-11.25L4.82-9.13Q4.82-6.94 3.02-6.04L3.02-6.04Q4.82-5.15 4.82-2.95L4.82-2.95L4.82-0.84Q4.87 1.32 6.10 1.79L6.10 1.79ZM13.92-3.77L13.92-3.77Q13.92-4.54 13.54-4.98Q13.15-5.42 12.20-5.81Q11.24-6.20 10.43-6.60Q9.62-7.00 9.03-7.53Q8.45-8.06 8.13-8.75Q7.82-9.44 7.82-10.43L7.82-10.43Q7.82-12.08 8.94-13.15Q10.05-14.22 11.90-14.39L11.90-14.39L11.90-16.46L13.46-16.46L13.46-14.36Q15.24-14.09 16.26-12.89Q17.29-11.68 17.29-9.82L17.29-9.82L13.98-9.82Q13.98-10.84 13.59-11.39Q13.20-11.93 12.48-11.93L12.48-11.93Q11.84-11.93 11.48-11.53Q11.12-11.12 11.12-10.41L11.12-10.41Q11.12-9.69 11.53-9.26Q11.94-8.84 12.85-8.45Q13.76-8.07 14.57-7.65Q15.37-7.24 15.96-6.71Q16.54-6.18 16.88-5.48Q17.21-4.78 17.21-3.79L17.21-3.79Q17.21-2.12 16.15-1.06Q15.09-0.01 13.26 0.17L13.26 0.17L13.26 2.13L11.71 2.13L11.71 0.16Q9.58-0.07 8.44-1.30Q7.30-2.54 7.30-4.56L7.30-4.56L10.60-4.56Q10.60-3.45 11.09-2.87Q11.58-2.29 12.49-2.29L12.49-2.29Q13.15-2.29 13.54-2.68Q13.92-3.08 13.92-3.77ZM18.21-14.26L18.21-16.66L22.67-16.66L22.67 3.41L18.21 3.41L18.21 1.02L19.38 1.02L19.38-14.26L18.21-14.26Z"></path>
    </g>
  </g>
</svg>